<svg width="381" height="369" xmlns="http://www.w3.org/2000/svg"><path fill="none" d="M-1-1h383v371H-1z"/><g><g stroke="null"><g transform="matrix(2.74814 0 0 2.90792 431.98 465.807)"><path fill="none" d="M-153.2-155.826h3.25v3.25h-3.25z"/></g><g transform="matrix(2.74814 0 0 2.90792 431.98 465.807)"><path stroke="#4c4c4c" stroke-linecap="null" stroke-linejoin="null" stroke-opacity="null" stroke-width="null" fill="none" d="M-150.919-142.388l4.125 5.75"/><path stroke="#4c4c4c" d="M-149.444-145.425c.595-5.7-.009.165-.037.287-.03.121-2.7 5.32-.625 1.312" stroke-opacity="null" stroke-width="null" fill="none"/><path stroke="#4c4c4c" stroke-linecap="null" stroke-linejoin="null" stroke-opacity="null" stroke-width="null" fill="none" d="M-149.282-147.8l2.714-2.713"/><path stroke="#4c4c4c" d="M-146.778-150.279c.372-.297.52-.371.892-.371s1.444-.02 1.525 0c.08.019.118.063.185.111.043.031 8.105 9.517.186.149" stroke-opacity="null" stroke-width="null" fill="none"/><path stroke="#4c4c4c" stroke-linecap="null" stroke-linejoin="null" stroke-opacity="null" stroke-width="null" fill="none" d="M-145.142-147.754l3.643 3.167M-146.577-146.687l3.735 3.834"/><path stroke="#4c4c4c" d="M-143.148-143.004c.074 0 .08.009.149.037.048.02.077.06.111.074.049.02.04.058.112.075.08.019.085.048.111.074.026.026.112 0 .223 0h.558c.186 0 .216.018.297.037.109.026.26.075.335.075h.334c.038 0 .086-.027.112 0 .026.026 0 .074 0 .111v.52c0 .075 0 .15.037.224.074.148.123.142.186.26.018.033.004.068.074.111.032.02.106.044.149.075.043.03.19.015.26.037.129.039.149.074.223.074h.521c.037 0 .081-.011.148.037.043.031.038.075.038.112v.632c0 .074.052.177.111.297.052.106.125.212.186.298.049.067.006.067.149.186.142.119.181.193.297.26.072.042.112.074.149.074.074 0 .085.048.111.075" stroke-opacity="null" stroke-width="null" fill="none"/><path stroke="#4c4c4c" d="M-146.866-136.759c.038.075.086.085.112.112.053.052.048.085.074.111.027.027.026.092.075.112.034.014.025.054.074.074.034.014.074 0 .112 0h.706c.074 0 .113.01.149 0 .128-.039.148-.074.223-.111.074-.038.14-.084.185-.112.1-.062.15-.031.186-.037.116-.019.138-.091.186-.112.069-.028.089-.034.186-.074.069-.028.136-.073.297-.111a.856.856 0 0 0 .186-.075c.12-.059.223-.074.298-.111.074-.037.123-.05.223-.112s.18-.092.26-.111c.072-.017.188-.064.223-.075.036-.01.23-.063.297-.111.068-.049.08-.009.15-.037.048-.02.077-.068.148-.112.095-.059.189-.03.297-.074.077-.032.142-.056.223-.075.037-.008.142-.055.223-.074.073-.017.145-.056.26-.074.037-.006.188.014.26 0 .197-.038.202-.036.335-.112.134-.075.262-.062.335-.074.116-.019.186-.075.335-.075.037 0 .074-.037.111-.037.037 0 .068-.055.149-.074.108-.026.154-.046.223-.074.048-.02.114-.06.149-.075.048-.02.112-.066.148-.074.036-.009.1-.092.149-.112.048-.02 2.535-1.29.149-.037M-140.401-145.989s.034.076.04.128c.004.037.034.076.04.128.008.074-.046.106-.042.143.005.052.014.081.004.117l-.042.143-.032.107-.042.142c-.02.072-.031.107-.042.143l-.031.107c-.01.036-.009.078-.032.107-.033.04-.092.05-.103.086-.01.036-.033.032-.056.06-.033.042-.08 0-.118.005-.052.005-.08.034-.164.03-.037-.003-.081.014-.117.003l-.143-.042c-.071-.02-.108-.026-.178-.052-.246-.092-.264-.156-.3-.166-.036-.01-.086-.103-.121-.114l.01-.035M-144.931-147.6c-.311-.128-.454-.17-.49-.18-.036-.01-.107-.03-.153-.005-.046.025-.105.011-.128.04-.033.041-.158.036-.22.092-.027.025-.043.067-.066.097-.033.04-.072.05-.113.122a.772.772 0 0 1-.067.097c-.023.029-.056.06-.066.097-.01.035-.049.064-.067.096-.04.073-.066.097-.077.133l-.03.107-.052.179c-.01.035-.041.143-.006.153l-.01.036.015.081.026.046" stroke-opacity="null" stroke-width="null" fill="none"/><path stroke="#4c4c4c" stroke-linecap="null" stroke-linejoin="null" stroke-opacity="null" stroke-width="NaN" fill="none" d="M-140.331-153.257l-2.194 1.858M-139.03-151.956l-2.305 1.933M-137.483-150.74l-2.797 2.25M-136.253-149.287l-2.766 2.319M-135.386-147.845l-3.208 2.824M-134.19-146.393l-3.096 2.645M-134.078-144.426l-2.424 1.96M-132.967-143.253l-2.517 1.994"/><path stroke="#4c4c4c" d="M-137.122-143.828c.636-.484-.04.04-.08.04-.079 0-.119.04-.198.04h-.278c-.08 0-.115-.019-.239-.04a.389.389 0 0 1-.159-.08c-.046-.034-.113-.088-.16-.121-.071-.053-.085-.06-.118-.081-.076-.047-.08-.161-.12-.242-.04-.08-.059-.114-.08-.202-.008-.04 0-.161 0-.242 0-.04-.03-.127 0-.202.022-.053.12-.121.12-.161l.04-.04M-140.423-153.183c.174-.104.297-.203.469-.267a.466.466 0 0 1 .272-.033c.021.004.115.003.248.099.205.146.349.35.392.53.047.19.035.304.011.435-.037.21-.001.34-.09.499-.035.064-.104.09-.135.138l-.01.052-.078.067-.03.049M-137.671-150.585c.184-.1.314-.198.497-.259a.53.53 0 0 1 .29-.028c.023.004.123.005.267.101.221.148.378.353.427.532.053.189.041.302.018.431-.037.208.004.337-.088.493-.037.064-.11.087-.143.135l-.01.052-.082.066-.033.047M-135.578-147.699c.185-.1.315-.198.498-.259a.53.53 0 0 1 .29-.028c.023.004.123.005.267.101.22.149.378.353.427.532.052.189.041.302.018.432-.037.207.003.336-.089.492-.037.064-.11.088-.143.135l-.009.052-.083.066-.032.047M-134.203-144.325c.154-.087.263-.17.416-.224a.434.434 0 0 1 .242-.025c.02.004.103.004.223.086.184.126.314.3.354.453a.748.748 0 0 1 .014.37c-.032.177.001.287-.076.422-.031.054-.093.075-.12.116l-.008.044-.07.057-.027.04M-135.297-141.449c.544-.42-.034.035-.068.035-.068 0-.102.035-.17.035h-.238c-.068 0-.098-.017-.204-.035a.33.33 0 0 1-.136-.07c-.04-.029-.097-.076-.136-.105-.062-.046-.074-.052-.102-.07-.065-.041-.068-.14-.102-.21-.034-.07-.051-.1-.068-.175-.008-.034 0-.14 0-.21 0-.036-.026-.111 0-.176.018-.046.102-.105.102-.14l.034-.035" stroke-opacity="null" stroke-width="NaN" fill="none"/><path stroke="#4c4c4c" stroke-linecap="null" stroke-linejoin="null" stroke-opacity="null" stroke-width="NaN" fill="none" d="M-142.296-151.888l1.55 1.722M-140.029-148.945l1.477 1.784"/></g></g><g stroke="null"><g transform="matrix(2.27233 0 0 2.68164 404.078 325.792)"><path fill="none" d="M-88.951-82.725h22v22h-22z"/></g><g transform="matrix(2.27233 0 0 2.68164 404.078 325.792)"><path stroke="#4c4c4c" fill="none" stroke-opacity="null" stroke-linejoin="null" stroke-linecap="null" d="M-87.034-77.642h18M-83.701-63.142l11.167.167M-80.701-80.308l6 .166"/><path stroke="#4c4c4c" fill="none" stroke-width="NaN" stroke-opacity="null" stroke-linejoin="null" stroke-linecap="null" d="M-80.867-75.475v11M-78.201-75.475v11M-75.367-75.475v11"/><path stroke="#4c4c4c" fill="none" stroke-opacity="null" stroke-linejoin="null" stroke-linecap="null" d="M-72.201-77.642v14.334M-84.201-77.808v14.333"/></g></g><g stroke="null"><g transform="matrix(2.86324 0 0 2.9996 422.442 386.702)"><path fill="none" d="M-110.15-124.247h22v22h-22z"/></g><g transform="matrix(2.86324 0 0 2.9996 422.442 386.702)"><path stroke="#4c4c4c" fill="none" stroke-opacity="null" d="M-99.494-117.404l-6.406 10.157-.125 1.187 1.312 1.188 2.25-.438 4.938-11.375"/><path stroke="#4c4c4c" fill="none" stroke-width="null" stroke-opacity="null" stroke-linejoin="null" stroke-linecap="null" d="M-104.869-120.223l11.063 5.101M-94.042-114.698l1.986-4.862M-104.494-120.196l5.563-1.743M-92.306-119.06l-6.938-2.902"/></g></g><g stroke="null"><g transform="matrix(2.83096 .01096 -.01123 2.90182 432.612 463.782)"><path fill="none" d="M-49.881-152.413h3.25v3.25h-3.25z"/></g><g transform="matrix(2.83096 .01096 -.01123 2.90182 432.612 463.782)"><path stroke="#4c4c4c" stroke-linecap="null" stroke-linejoin="null" stroke-opacity="null" stroke-width="null" fill="none" d="M-48.224-148.823v15.583M-47.849-148.323l8.624 1.062M-38.644-147.214l8.527-1.156M-29.662-148.823v15.833M-38.975-147.761v13.334M-48.037-133.698l9.25-.938M-39.013-134.63l9.607 1.227M-45.6-145.448l4.563.437M-45.037-140.636h4.88M-46.287-135.823l5.75-.563M-44.537-138.261l3.437-.187M-44.17-143.18l3.641.275M-36.6-138.261l3.188.25M-36.412-140.073l4.562.125M-37.162-142.636l4.875-.312M-36.6-145.011l3.063-.312"/></g></g><g stroke="null"><g transform="matrix(3.65732 0 0 3.38458 364.016 336.867)"><path fill="none" d="M-20.286-16.327h22v22h-22z"/></g><g transform="matrix(3.65732 0 0 3.38458 364.016 336.867)"><path stroke="#666" fill="none" stroke-linejoin="undefined" stroke-linecap="undefined" d="M-17.567 1.923h15.312M-4.416-12.769l-4.928 11.76M-6.198-13.571l-4.988 11.804"/><path stroke="#666" fill="none" stroke-width="null" stroke-opacity="null" stroke-linejoin="undefined" stroke-linecap="undefined" d="M-10.68-2.394l-.65 1.759M-10.637-.722l-.486 1.353M-6.583-11.826l1.281.498M-5.836-13.564l1.225.474M-9.27-1.755l-.72 1.73"/></g></g><g stroke="null"><path transform="matrix(3.27991 0 0 3.31276 1705.593 2567.971)" fill="none" d="M-459.595-687.474h512v512h-512z"/><g transform="matrix(3.27991 0 0 3.31276 1705.593 2567.971)"><path fill="none" d="M-461.814-688.474h3.25v3.25h-3.25z"/></g><g transform="matrix(3.27991 0 0 3.31276 1705.593 2567.971)" class="currentLayer"><path stroke="#4c4c4c" fill="none" d="M-452.663-683.136l.416-2.718 2.436.072.485 2.626M-448.946-671.79l-.405 2.72-2.437-.062-.495-2.625M-456.503-675.947l-2.72-.405.062-2.437 2.625-.495M-444.975-679.159l2.72.405-.063 2.437-2.625.495M-453.617-672.23l-2.209 1.637-1.68-1.768 1.507-2.205M-445.296-674.551l1.636 2.21-1.767 1.679-2.206-1.507M-448.006-682.583l2.209-1.637 1.68 1.768-1.507 2.205M-456.188-680.368l-1.636-2.21 1.767-1.678 2.206 1.506"/><ellipse stroke="#4c4c4c" fill="none" stroke-width="null" cx="-450.877" cy="-677.162" rx="3.156" ry="3.156"/></g></g><g stroke="null"><g transform="matrix(3.5983 0 0 3.68915 368.308 296.557)"><path fill="none" d="M-50.266-29.037h22v22h-22z"/></g><g transform="matrix(3.5983 0 0 3.68915 368.308 296.557)"><path stroke="#666" fill="none" stroke-width="null" stroke-linejoin="null" stroke-linecap="null" d="M-43.485-26.131v15.261M-43.422-25.631h8.193M-35.61-25.756l2.625 2.438M-43.61-11.381h10.941M-33.172-23.693v12.385M-33.36-22.818h-2.687M-36.047-25.381v3.063M-45.047-24.631V-9.37M-44.985-24.131h1.506M-45.172-9.881h10.94M-34.735-11.693v2.323M-41.735-20.131h6.253M-41.985-18.006h4M-36.672-18.006h2.071M-40.985-15.881h5.571"/></g></g><g stroke="null"><g transform="matrix(2.87145 0 0 3.32573 378.572 340.93)"><path fill="none" d="M-28.279-70.795h22v22h-22z"/></g><g transform="matrix(2.87145 0 0 3.32573 378.572 340.93)"><path stroke="#666" stroke-linecap="null" stroke-linejoin="null" stroke-width="null" fill="none" d="M-24.997-67.764v16.76M-25.497-68.201h12.068M-13.716-68.302l3.437 2.514M-24.497-51.514h14.252M-10.497-66.139v15.135"/><path stroke="#666" stroke-linecap="null" stroke-linejoin="null" stroke-opacity="null" stroke-width="null" fill="none" d="M-21.872-61.358v3.379M-23.843-61.825h3.816M-19.183-62.004l2.964 3.67M-16.24-61.96l-2.823 3.669M-13.435-61.295v3.378M-15.405-61.763h3.816"/></g></g><g stroke="null"><g transform="matrix(2.02094 0 0 2.44076 240.693 207.78)"><path fill="none" d="M-114.039-5.828h3.875v3.875h-3.875z"/></g><g transform="matrix(2.02094 0 0 2.44076 240.693 207.78)"><path stroke="#4c4c4c" d="M-85.883 7.954c-1.062-.625-7.125-3.375-7.656-3.47-2.031-.718-6.906-1.343-6.937-1.374-2.594-.531-5.157-.469-5.188-.5-2.531.031-3.594.656-3.937.937-1.72 1.782-1.47 2.219-2.063 3.125-.156 1.657-.281 1.469-.437 3.188" stroke-opacity="null" stroke-width="1.2" fill="none"/><path stroke="#4c4c4c" d="M-85.883 11.67c-1.062.615-7.125 3.195-7.656 3.287-2.281.713-6.906 1.443-6.937 1.474-2.594.522-5.157.46-5.188.491-2.531-.03-3.594-.645-3.937-.921-1.72-1.75-1.47-2.18-2.063-3.071-.156-1.628-.281-1.444-.437-3.133" stroke-opacity="null" stroke-width="1.2" fill="none"/><path stroke="#4c4c4c" d="M-85.945 7.891c.687.625 1.312 1 1.281.969.031-.219.219 1.969.188 1.937.218-.093-.907.532-1.75.938" stroke-opacity="null" stroke-width="null" fill="none"/><path stroke="#4c4c4c" stroke-linecap="null" stroke-linejoin="null" stroke-opacity="null" stroke-width="1.2" fill="none" d="M-89.445 6.641l1.812-3.5M-87.883 3.329l2.938-1.438M-85.258 2.266l.125 6.188M-87.78 15.652l-1.768-2.647M-88.023 15.455l3.093 1.06M-85.383 11.516l.108 4.563"/><path stroke="#4c4c4c" d="M-84.945 8.769c-1.098-.399-7.363-2.074-7.912-2.133-2.293-.22-7.137-.937-7.169-.957-2.68-.34-5.328-.3-5.36-.32-2.616.02-3.714.42-4.07.599-1.776 1.136-1.517 1.415-2.13 1.993-.162 1.057-.291.937-.453 2.034M-85.07 11.083c-1.093.339-7.329 1.765-7.875 1.816-2.283.186-7.104.797-7.136.814-2.668.289-5.304.255-5.336.272-2.604-.017-3.697-.357-4.05-.51-1.768-.967-1.511-1.204-2.122-1.697-.16-.9-.29-.797-.45-1.73" stroke-opacity="null" stroke-width="1.2" fill="none"/><path stroke="#4c4c4c" stroke-linecap="null" stroke-linejoin="null" stroke-opacity="null" stroke-width="1.2" fill="none" d="M-111.57 9.579l26.937.375M-106.758 16.704l2.688 3.25M-96.883 15.454l-2.375 4.5M-98.82 19.766h-5.563"/></g></g><g stroke="null"><g transform="matrix(2.68974 0 0 2.7806 391.254 376.274)"><path fill="none" d="M-34.161-65.037h22v22h-22z"/></g><g transform="matrix(2.68974 0 0 2.7806 391.254 376.274)"><path stroke="#666" fill="none" stroke-width="null" stroke-opacity="null" d="M-31.692-61.694h17.187v15.812h-17.187z"/><path stroke="#666" fill="#666" stroke-width="null" stroke-opacity="null" d="M-31.317-61.444h16.125v3.125h-16.125z"/><path stroke="#666" fill="none" stroke-width="null" stroke-opacity="null" stroke-linejoin="null" stroke-linecap="null" d="M-27.505-58.006v11.816M-23.255-57.881v11.816M-18.817-57.944v11.817M-31.255-54.381h16.438M-31.317-50.069h16.437"/></g></g><g stroke="null"><g transform="matrix(.87133 0 0 .96218 129.783 126.383)"><path fill="none" d="M-28.078-23.97h66v66h-66z"/></g><g transform="matrix(.87133 0 0 .96218 129.783 126.383)"><path stroke="#4c4c4c" d="M26.13-11.244c0 5.6-10.196 10.14-22.773 10.14m22.772-10.14c0 5.6-10.195 10.14-22.772 10.14-12.576 0-22.772-4.54-22.772-10.14m0 0c0-5.6 10.196-10.14 22.772-10.14 12.577 0 22.772 4.54 22.772 10.14v40.558c0 5.6-10.195 10.14-22.772 10.14-12.576 0-22.772-4.54-22.772-10.14v-40.558z" stroke-opacity="null" stroke-width="3" fill="none"/><path stroke="#4c4c4c" fill="none" stroke-width="3" stroke-opacity="null" stroke-linejoin="null" stroke-linecap="null" d="M-5.828 16.655h18.007M3.422 25.655V7.903"/></g></g><g stroke="null"><g transform="matrix(2.88537 0 0 3.31164 351.515 311.997)"><path fill="none" d="M-53.829-91.242h5.333v5.333h-5.333z"/></g><g transform="matrix(2.88537 0 0 3.31164 351.515 311.997)"><path stroke="#4c4c4c" fill="none" stroke-width="null" stroke-opacity="null" stroke-linejoin="null" stroke-linecap="null" d="M-50.292-87.799v15.079M-35.053-83.802v11.457M-50.105-87.299h10.688M-39.737-87.424l4.871 3.997M-50.792-72.684h16.247M-48.481-86.987v4.31M-40.674-87.112v4.31M-48.356-83.177l8.181.063M-45.921-86.237v1.874"/><ellipse stroke="#4c4c4c" fill="none" stroke-width="null" stroke-opacity="null" cx="-42.86" cy="-78.149" rx="2.498" ry="2.405"/></g></g><g stroke="null"><g transform="matrix(2.38621 0 0 2.82086 204.192 320.626)"><path fill="none" d="M-79.709-8.832h3.375v3.25h-3.375z"/></g><g transform="matrix(2.38621 0 0 2.82086 204.192 320.626)"><path stroke="#4c4c4c" stroke-linecap="null" stroke-linejoin="null" stroke-opacity="null" stroke-width="1.5" fill="none" d="M-68.712-6.133l-6.16 4.633M-60.6 5.934v-7.531M-69.428 1.793h3.965M-74.6 5.496v-7.53M-74.894 4.97l8.192 6.122M-67.472 11.273l7.157-5.893M-69.039 5.057V-1.47M-65.255 5.153v-6.527"/><path stroke="#4c4c4c" fill="none" stroke-width="1.2" stroke-opacity="null" stroke-linejoin="null" stroke-linecap="null" d="M-67.919-7.112l-.728 3.873M-71.76-7.06l4.315.493"/></g></g><g stroke="null"><g transform="matrix(1.20447 0 0 1.23475 101.75 96.395)"><path fill="none" d="M-83.332-.868h66v66h-66z"/></g><g transform="matrix(1.20447 0 0 1.23475 101.75 96.395)"><ellipse stroke="#4c4c4c" fill="none" stroke-width="3" stroke-opacity="null" cx="-51.022" cy="14.465" rx="5.75" ry="5.75"/><ellipse stroke="#4c4c4c" fill="none" stroke-width="3" stroke-opacity="null" cx="-70.355" cy="48.509" rx="5.75" ry="5.75"/><ellipse stroke="#4c4c4c" fill="none" stroke-width="3" stroke-opacity="null" cx="-31.436" cy="48.259" rx="5.75" ry="5.75"/><path stroke="#4c4c4c" fill="none" stroke-width="3" stroke-opacity="null" stroke-linejoin="null" stroke-linecap="null" d="M-67.499 42.966l13.333-22.667M-47.832 19.632l14.333 24M-63.832 48.966h26.7"/></g></g><g stroke="null"><g transform="matrix(2.4163 0 0 2.66616 251.477 244.894)"><path fill="none" d="M-64.175-22.705h32v32h-32z"/></g><g transform="matrix(2.4163 0 0 2.66616 251.477 244.894)"><path stroke="#4c4c4c" fill="none" stroke-width="null" stroke-opacity="null" stroke-linejoin="null" stroke-linecap="null" d="M-57.414-8.002l9.624-7.368M-56.725-7.918l-3.447-3.963M-53.816-16.729l5.56 1.383M-53.436-16.904l-6.048 5.113M-53.394-10.674l7.876 7.876M-52.057-11.725l11.107 9.12M-53.394-10.674L-42.705.015M-42.956-.236l2.751 2.438M-41.192-2.837l2.765 3.183M-40.581 2.139l2.062-.25M-38.519.076l.25 2.313M-54.519.201l6.046-6.234M-52.331 1.888l5.675-5.674M-46.831-7.799l2.22-2.221M-43.536-12.398l3.229-3.934M-44.769-6.049l2.196-2.195M-37.18-13.733l-3.198 3.966"/><path stroke="#4c4c4c" fill="none" stroke-width="null" stroke-opacity="null" d="M-42.957-15.564c-7.515 2.703 2.654 13.416 5.69 4.221"/><path stroke="#4c4c4c" fill="none" stroke-width="null" stroke-opacity="null" stroke-linejoin="null" stroke-linecap="null" d="M-37.288-13.405l-.094 2.845M-43.511-15.5l2.922-.66M-43.267-12.789l2.94 2.424M-54.379.024l-1.128 2.173M-55.644 1.701l1.519 1.519M-52.206 1.826l-2.438 1.25"/></g></g><g stroke="null"><g transform="matrix(1.83673 0 0 1.83673 266.206 303.377)"><path fill="none" d="M-85.851-4.882h30v30h-30z"/></g><g transform="matrix(1.83673 0 0 1.83673 266.206 303.377)"><path stroke="#4c4c4c" fill="none" stroke-width="1.5" d="M-83.988 11.306c0 12.51 10.018 12.232 12.365 12.07M-72.563.617c-11.8 0-11.537 10.018-11.384 12.365M-73.861 23.419c12.51 0 12.231-9.158 12.069-11.303M-58.499 9.23c.75-11.811-8.225-11.478-10.614-11.696"/><path stroke="#4c4c4c" fill="none" stroke-width="1.5" stroke-opacity="null" stroke-linejoin="null" stroke-linecap="null" d="M-72.924-.122v12.438M-73.674 12.816h12.625M-68.362-2.309V8.004M-69.112 8.503h10.625"/></g></g></g></svg>